<mxfile host="app.diagrams.net" modified="2023-08-03T12:18:52.069Z" agent="Mozilla/5.0 (Macintosh; Intel Mac OS X 10_15_7) AppleWebKit/537.36 (KHTML, like Gecko) Chrome/114.0.0.0 Safari/537.36" version="21.5.2" etag="B7vn1XA0Zz0y6e7y0eLf" type="github">
  <diagram name="Page-1" id="3tuehJdodSbWzQ75bEXT">
    <mxGraphModel>
      <root>
        <mxCell id="0" />
        <mxCell id="1" parent="0" />
      </root>
    </mxGraphModel>
  </diagram>
</mxfile>
